<svg width="44" height="44" viewBox="0 0 44 44" fill="none" xmlns="http://www.w3.org/2000/svg">
<path d="M37.0824 16.3986C37.0824 20.2304 34.0018 23.3481 30.2152 23.3481H28.8418V20.6012H30.2152C32.5267 20.6012 34.3355 18.754 34.3355 16.3986C34.3355 14.0953 32.5638 12.3607 30.2152 12.3607H29.0245L28.8556 11.1823C28.4161 8.10308 25.2641 5.50319 21.9747 5.50319C18.6854 5.50319 15.5334 8.10308 15.0939 11.1823L14.9249 12.3607H13.7342C11.3856 12.3607 9.61391 14.0967 9.61391 16.3986C9.61391 18.7526 11.4227 20.6012 13.7342 20.6012H15.1076V23.3481H13.7342C9.94765 23.3481 6.86707 20.2304 6.86707 16.3986C6.86707 12.9732 9.31176 10.2182 12.608 9.70037C13.7314 5.78474 17.7061 2.75635 21.9747 2.75635C26.2433 2.75635 30.218 5.78474 31.3415 9.70037C34.6377 10.2182 37.0824 12.9732 37.0824 16.3986ZM35.7089 31.5886C35.7089 33.8602 33.8603 35.7089 31.5887 35.7089C29.317 35.7089 27.4684 33.8602 27.4684 31.5886C27.4684 30.9362 27.6346 30.3264 27.9065 29.7771L27.8708 29.8128L23.3481 25.2901V33.2147C24.944 33.7833 26.095 35.2941 26.095 37.0823C26.095 39.3539 24.2464 41.2026 21.9747 41.2026C19.7031 41.2026 17.8544 39.3539 17.8544 37.0823C17.8544 35.2941 19.0067 33.7833 20.6013 33.2147V25.2901L16.0786 29.8128L16.0429 29.7771C16.3148 30.3264 16.481 30.9362 16.481 31.5886C16.481 33.8602 14.6324 35.7089 12.3608 35.7089C10.0891 35.7089 8.24049 33.8602 8.24049 31.5886C8.24049 29.317 10.0891 27.4683 12.3608 27.4683C13.0131 27.4683 13.6229 27.6345 14.1723 27.9065L14.1366 27.8708L20.6013 21.4061V14.3027L17.452 17.452L15.51 15.5099L21.9747 9.04525L28.4394 15.5099L26.4974 17.452L23.3481 14.3027V21.4061L29.8128 27.8708L29.7771 27.9065C30.3265 27.6345 30.9349 27.467 31.5887 27.467C33.8603 27.467 35.7089 29.3183 35.7089 31.5886ZM13.7342 31.5886C13.7342 31.2244 13.5895 30.875 13.3319 30.6174C13.0743 30.3599 12.725 30.2152 12.3608 30.2152C11.9965 30.2152 11.6472 30.3599 11.3896 30.6174C11.132 30.875 10.9873 31.2244 10.9873 31.5886C10.9873 31.9529 11.132 32.3022 11.3896 32.5598C11.6472 32.8173 11.9965 32.962 12.3608 32.962C12.725 32.962 13.0743 32.8173 13.3319 32.5598C13.5895 32.3022 13.7342 31.9529 13.7342 31.5886ZM23.3481 37.0823C23.3481 36.718 23.2034 36.3687 22.9459 36.1111C22.6883 35.8536 22.339 35.7089 21.9747 35.7089C21.6105 35.7089 21.2611 35.8536 21.0036 36.1111C20.746 36.3687 20.6013 36.718 20.6013 37.0823C20.6013 37.4466 20.746 37.7959 21.0036 38.0535C21.2611 38.311 21.6105 38.4557 21.9747 38.4557C22.339 38.4557 22.6883 38.311 22.9459 38.0535C23.2034 37.7959 23.3481 37.4466 23.3481 37.0823ZM32.9621 31.5886C32.9619 31.2242 32.817 30.8747 32.5591 30.6172C32.3013 30.3596 31.9517 30.215 31.5873 30.2152C31.2229 30.2154 30.8734 30.3603 30.6159 30.6181C30.3583 30.876 30.2137 31.2255 30.2139 31.59C30.214 31.7704 30.2496 31.9491 30.3187 32.1158C30.3879 32.2825 30.4892 32.4339 30.6168 32.5614C30.7445 32.689 30.896 32.7901 31.0628 32.8591C31.2295 32.928 31.4082 32.9635 31.5887 32.9634C31.7691 32.9633 31.9478 32.9277 32.1145 32.8585C32.2811 32.7894 32.4326 32.6881 32.5601 32.5604C32.6876 32.4328 32.7888 32.2813 32.8578 32.1145C32.9267 31.9478 32.9622 31.7691 32.9621 31.5886Z" fill="white" fill-opacity="0.35"/>
</svg>
