<svg width="41" height="40" viewBox="0 0 41 40" fill="none" xmlns="http://www.w3.org/2000/svg">
<path d="M36.1511 21.3254H29.6608V18.0801H36.1511V21.3254ZM36.1511 23.1797H29.6608V26.4249H36.1511V23.1797ZM36.1511 7.88108H29.6608V11.1262H36.1511V7.88108ZM36.1511 12.9806H29.6608V16.2257H36.1511V12.9806ZM36.1511 28.2792H29.6608V31.5244H36.1511V28.2792ZM40.634 34.6768C40.4486 35.6412 39.2896 35.6643 38.5154 35.6968H24.0977V39.8691H21.2187L0 36.1603V3.71342L21.3439 0H24.0977V3.69484H38.0194C38.8029 3.72728 39.6652 3.67165 40.3466 4.13985C40.8241 4.82597 40.7778 5.69758 40.8103 6.48564L40.7917 30.6204C40.7686 31.9694 40.9168 33.3464 40.634 34.6768ZM16.9999 27.4031C15.7205 24.807 14.4178 22.2293 13.1429 19.6332C14.4039 17.1066 15.6464 14.5708 16.8841 12.0349C15.8318 12.0859 14.7794 12.1508 13.7317 12.225C12.9482 14.1303 12.0349 15.9847 11.423 17.955C10.8527 16.096 10.0971 14.3065 9.40637 12.4938C8.38643 12.5495 7.36649 12.6097 6.34663 12.67C7.42213 15.0437 8.56729 17.3847 9.61034 19.7723C8.38181 22.0902 7.23211 24.4407 6.04064 26.7726C7.05587 26.8143 8.07119 26.856 9.08642 26.8699C9.80969 25.0248 10.709 23.2493 11.3395 21.367C11.9051 23.3883 12.8647 25.2566 13.6529 27.1898C14.7701 27.2687 15.8827 27.3382 16.9999 27.4031ZM38.5992 5.89661H24.0977V7.88108H27.8065V11.1262H24.0977V12.9806H27.8065V16.2257H24.0977V18.0801H27.8065V21.3254H24.0977V23.1797H27.8065V26.4249H24.0977V28.2792H27.8065V31.5244H24.0977V33.6683H38.5992V5.89661Z" fill="#919191"/>
</svg>
