<svg width="46" height="46" viewBox="0 0 46 46" fill="none" xmlns="http://www.w3.org/2000/svg">
<path d="M40.4487 10.7063C39.3937 10.7071 38.3688 11.058 37.5347 11.704C36.7006 12.3499 36.1044 13.2544 35.8396 14.2756H30.383C29.2568 14.2754 28.1671 14.6747 27.3076 15.4024C26.4481 16.1301 25.8746 17.1391 25.6892 18.2499L25.4952 19.4253C25.4035 19.9811 25.1171 20.4863 24.6871 20.8504C24.2571 21.2144 23.7117 21.4136 23.1483 21.4124H21.2628C20.9987 20.3911 20.4028 19.4865 19.5687 18.8407C18.7346 18.1949 17.7096 17.8445 16.6547 17.8445C15.5998 17.8445 14.5748 18.1949 13.7408 18.8407C12.9067 19.4865 12.3107 20.3911 12.0466 21.4124H9.3682C9.07848 20.2908 8.38964 19.3133 7.4308 18.6632C6.47196 18.0131 5.30895 17.735 4.15975 17.881C3.01054 18.0271 1.95404 18.5872 1.18826 19.4564C0.422482 20.3257 0 21.4444 0 22.6028C0 23.7613 0.422482 24.8799 1.18826 25.7492C1.95404 26.6184 3.01054 27.1785 4.15975 27.3246C5.30895 27.4706 6.47196 27.1925 7.4308 26.5424C8.38964 25.8923 9.07848 24.9148 9.3682 23.7932H12.0466C12.3101 24.8153 12.9059 25.7209 13.7402 26.3674C14.5746 27.0139 15.6001 27.3648 16.6557 27.3648C17.7112 27.3648 18.7368 27.0139 19.5711 26.3674C20.4055 25.7209 21.0012 24.8153 21.2647 23.7932H23.1483C23.712 23.7915 24.2579 23.9905 24.6883 24.3546C25.1186 24.7187 25.4053 25.2241 25.497 25.7804L25.6911 26.9538C25.8761 28.065 26.4494 29.0744 27.3089 29.8025C28.1684 30.5306 29.2584 30.9301 30.3849 30.93H31.0818C31.3713 32.0518 32.06 33.0294 33.0188 33.6797C33.9776 34.33 35.1407 34.6083 36.29 34.4623C37.4393 34.3164 38.4959 33.7563 39.2618 32.8871C40.0277 32.0178 40.4502 30.8991 40.4502 29.7405C40.4502 28.582 40.0277 27.4632 39.2618 26.594C38.4959 25.7247 37.4393 25.1646 36.29 25.0187C35.1407 24.8728 33.9776 25.151 33.0188 25.8013C32.06 26.4516 31.3713 27.4293 31.0818 28.5511H30.3849C29.8212 28.5522 29.2755 28.3527 28.8455 27.9883C28.4155 27.6239 28.1292 27.1183 28.038 26.562L27.844 25.3886C27.6644 24.3093 27.1174 23.3252 26.2957 22.6028C27.1164 21.8794 27.662 20.8946 27.8402 19.8152L28.0361 18.6436C28.1273 18.0873 28.4136 17.5817 28.8436 17.2173C29.2736 16.8529 29.8193 16.6534 30.383 16.6546H35.8377C36.0601 17.5166 36.5197 18.2991 37.1644 18.913C37.8092 19.527 38.6132 19.9478 39.4851 20.1276C40.3571 20.3075 41.2619 20.2392 42.097 19.9305C42.9321 19.6218 43.6638 19.0851 44.2091 18.3814C44.7544 17.6776 45.0914 16.8351 45.1818 15.9494C45.2722 15.0637 45.1124 14.1704 44.7206 13.371C44.3287 12.5716 43.7205 11.8981 42.965 11.4271C42.2095 10.956 41.3371 10.7063 40.4468 10.7063M40.4468 13.0852C41.0777 13.0852 41.6828 13.3359 42.1289 13.782C42.5751 14.2281 42.8257 14.8332 42.8257 15.4641C42.826 15.7767 42.7646 16.0863 42.6452 16.3751C42.5257 16.6639 42.3505 16.9264 42.1296 17.1475C41.9087 17.3686 41.6464 17.544 41.3576 17.6637C41.0689 17.7834 40.7594 17.845 40.4468 17.845C40.1342 17.845 39.8247 17.7834 39.536 17.6637C39.2472 17.544 38.9849 17.3686 38.764 17.1475C38.543 16.9264 38.3679 16.6639 38.2484 16.3751C38.129 16.0863 38.0676 15.7767 38.0679 15.4641C38.0679 15.1516 38.1295 14.8421 38.2491 14.5533C38.3688 14.2646 38.5442 14.0023 38.7653 13.7813C38.9864 13.5604 39.2489 13.3852 39.5377 13.2658C39.8266 13.1463 40.1361 13.085 40.4487 13.0852M4.75915 20.2239C5.07172 20.2236 5.38127 20.285 5.67011 20.4044C5.95895 20.5239 6.22142 20.6991 6.44253 20.92C6.66363 21.1409 6.83903 21.4032 6.9587 21.692C7.07837 21.9807 7.13996 22.2902 7.13996 22.6028C7.13996 22.9154 7.07837 23.2249 6.9587 23.5136C6.83903 23.8024 6.66363 24.0647 6.44253 24.2856C6.22142 24.5066 5.95895 24.6817 5.67011 24.8012C5.38127 24.9206 5.07172 24.982 4.75915 24.9817C4.12822 24.9817 3.52314 24.7311 3.077 24.285C2.63087 23.8388 2.38023 23.2337 2.38023 22.6028C2.38023 21.9719 2.63087 21.3668 3.077 20.9207C3.52314 20.4745 4.12822 20.2239 4.75915 20.2239ZM16.6557 20.2239C16.9681 20.2239 17.2774 20.2854 17.566 20.405C17.8547 20.5245 18.1169 20.6997 18.3378 20.9207C18.5587 21.1416 18.7339 21.4038 18.8535 21.6924C18.9731 21.9811 19.0346 22.2904 19.0346 22.6028C19.0346 23.2337 18.784 23.8388 18.3378 24.285C17.8917 24.7311 17.2866 24.9817 16.6557 24.9817C16.0251 24.9812 15.4205 24.7304 14.9747 24.2843C14.529 23.8382 14.2786 23.2334 14.2786 22.6028C14.2786 21.9719 14.5293 21.3668 14.9754 20.9207C15.4215 20.4745 16.0266 20.2239 16.6575 20.2239M35.6927 27.3625C36.3236 27.3625 36.9287 27.6132 37.3749 28.0593C37.821 28.5054 38.0716 29.1105 38.0716 29.7415C38.0716 30.3724 37.821 30.9775 37.3749 31.4236C36.9287 31.8697 36.3236 32.1204 35.6927 32.1204C35.3801 32.1206 35.0706 32.0593 34.7818 31.9398C34.4929 31.8204 34.2304 31.6452 34.0093 31.4243C33.7882 31.2034 33.6128 30.941 33.4932 30.6523C33.3735 30.3635 33.3119 30.054 33.3119 29.7415C33.3117 29.4289 33.373 29.1194 33.4924 28.8305C33.6119 28.5417 33.7871 28.2792 34.008 28.0581C34.2289 27.837 34.4913 27.6616 34.78 27.5419C35.0688 27.4222 35.3783 27.3607 35.6908 27.3607" fill="#919191"/>
</svg>
