<svg width="53" height="52" viewBox="0 0 53 52" fill="none" xmlns="http://www.w3.org/2000/svg">
<path d="M47.9605 26.0001C47.9605 22.9039 45.0036 20.1913 40.3042 18.4168C40.3683 18.0268 40.4743 17.6151 40.5251 17.2359C41.0043 12.7769 39.9222 9.55943 37.4798 8.17493C34.7525 6.62793 30.8923 7.77193 26.988 10.8594C23.077 7.77626 19.2124 6.63226 16.4918 8.17493C14.0472 9.55943 12.9584 12.7769 13.4465 17.2359C13.4862 17.6151 13.5944 18.0268 13.6563 18.4168C8.95916 20.1913 6.0022 22.9039 6.0022 26.0001C6.0022 29.0963 8.95916 31.8089 13.6563 33.5834C13.5944 33.9734 13.4862 34.3851 13.4465 34.7643C12.9651 39.2233 14.0472 42.4408 16.4918 43.8253C17.3221 44.2868 18.2651 44.5229 19.2191 44.5099C22.1136 44.2489 24.8404 43.0612 26.9792 41.1299C29.1185 43.0617 31.8461 44.2494 34.7414 44.5099C35.6971 44.5232 36.6391 44.2869 37.4709 43.8253C39.9134 42.4408 41.0043 39.2233 40.5162 34.7643C40.4743 34.3851 40.3683 33.9734 40.2954 33.5834C45.0036 31.8089 47.9605 29.0963 47.9605 26.0001ZM34.6884 9.64609C35.2746 9.63305 35.8537 9.77286 36.3668 10.0513C37.9855 10.9699 38.6966 13.5028 38.3189 17.0106C38.2924 17.2403 38.224 17.4916 38.1909 17.7256C36.3314 17.1984 34.4396 16.8206 32.5154 16.5924C31.3514 15.0666 30.061 13.6375 28.6575 12.3198C30.3339 10.8324 32.4429 9.89748 34.6884 9.64609ZM17.2051 28.6716C17.5849 29.4083 17.9449 30.1449 18.3733 30.8751C18.8017 31.6053 19.2456 32.2964 19.6983 32.9746C18.5001 32.7717 17.3151 32.4997 16.1495 32.1599C16.4299 30.9775 16.7824 29.8126 17.2051 28.6716ZM16.1473 19.8403C17.3129 19.5005 18.4978 19.2284 19.6961 19.0256C19.2426 19.7016 18.801 20.4014 18.3711 21.1251C17.9404 21.8509 17.5827 22.5919 17.2029 23.3286C16.7818 22.1875 16.4299 21.0247 16.1473 19.8403ZM18.3291 26.0001C18.9158 24.7039 19.5703 23.4383 20.2901 22.2084C21.0203 20.9778 21.8124 19.7861 22.6663 18.6334C24.0332 18.5013 25.4709 18.4168 26.9814 18.4168C28.4904 18.4182 29.9273 18.4904 31.292 18.6334C32.146 19.7888 32.9412 20.9848 33.6748 22.2171C34.3933 23.4463 35.0462 24.7073 35.6336 26.0001C34.4592 28.5973 33.0139 31.0681 31.3207 33.3733C28.4347 33.6647 25.5258 33.6647 22.6398 33.3733C21.7957 32.218 21.01 31.0227 20.2857 29.7918C19.5674 28.5618 18.9143 27.2962 18.3291 26.0001ZM35.5894 30.8751C36.0311 30.1449 36.38 29.4083 36.7599 28.6716C37.1809 29.8141 37.5328 30.9776 37.8154 32.1621C36.6487 32.4973 35.4639 32.7693 34.2667 32.9768C34.7127 32.2964 35.1588 31.6009 35.585 30.8751H35.5894ZM36.7599 23.3286C36.38 22.5919 36.0201 21.8553 35.5894 21.1251C35.1682 20.4123 34.7264 19.7115 34.2644 19.0234C35.4628 19.2285 36.645 19.5001 37.811 19.8381C37.5307 21.0213 37.1782 22.1869 36.7554 23.3286H36.7599ZM26.9792 13.7368C27.8625 14.55 28.6943 15.4116 29.4746 16.3216C28.6575 16.2768 27.8264 16.253 26.9814 16.2501C25.7138 16.2458 25.303 16.2783 24.4837 16.3216C25.264 15.4116 26.0958 14.55 26.9792 13.7368ZM17.5959 10.0534C18.109 9.77503 18.6881 9.63521 19.2743 9.64826C21.518 9.89992 23.6253 10.8341 25.3008 12.3198C23.8973 13.6375 22.6069 15.0666 21.4429 16.5924C19.5201 16.8206 17.6291 17.1991 15.7697 17.7278C15.7365 17.4916 15.6659 17.2403 15.6416 17.0106C15.2639 13.5028 15.975 10.9721 17.5959 10.0534ZM8.21053 26.0001C8.21053 24.0501 10.3614 22.0351 14.0516 20.5704C14.533 22.4273 15.1646 24.2429 15.9419 26.0001C15.1646 27.7573 14.533 29.5751 14.0516 31.4298C10.3614 29.9651 8.21053 27.9501 8.21053 26.0001ZM17.5959 41.9489C15.975 41.0324 15.2639 38.4974 15.6416 34.9896C15.6659 34.7599 15.7365 34.5086 15.7697 34.2724C17.6276 34.7996 19.515 35.1781 21.4318 35.4078C22.605 36.9395 23.9026 38.3756 25.3119 39.7021C22.1738 42.1049 19.3184 42.9261 17.5959 41.9489ZM24.4639 35.6764C25.2883 35.7241 26.1275 35.7486 26.9814 35.7501C27.8353 35.7486 28.6737 35.7241 29.4967 35.6764C28.7115 36.6022 27.8708 37.4812 26.9792 38.3089C26.0882 37.4812 25.2483 36.6021 24.4639 35.6764ZM36.3668 41.9489C34.6399 42.9261 31.7845 42.1049 28.6376 39.6999C30.0496 38.3768 31.3474 36.9412 32.5177 35.4078C34.4335 35.1787 36.3277 34.7998 38.182 34.2746C38.2152 34.5086 38.2836 34.7599 38.3101 34.9896C38.6966 38.4974 37.9833 41.0324 36.3668 41.9489ZM39.9001 31.4319C39.4214 29.575 38.7922 27.7587 38.0186 26.0001C38.7974 24.2379 39.4275 22.4273 39.9089 20.5683C43.5991 22.0351 45.7522 24.0501 45.7522 26.0001C45.7522 27.9501 43.5991 29.9651 39.9089 31.4319H39.9001Z" fill="white" fill-opacity="0.5"/>
<path d="M26.9748 29.8415C27.7572 29.844 28.5229 29.6189 29.1751 29.1946C29.8272 28.7703 30.3365 28.1659 30.6386 27.4577C30.9406 26.7494 31.0219 25.9692 30.8721 25.2157C30.7224 24.4622 30.3483 23.7691 29.7971 23.2241C29.246 22.6791 28.5425 22.3067 27.7757 22.1539C27.0089 22.0011 26.2131 22.0747 25.4889 22.3655C24.7647 22.6564 24.1447 23.1513 23.7071 23.7878C23.2696 24.4243 23.0342 25.1738 23.0307 25.9415V25.9545C23.0286 26.464 23.1291 26.969 23.3264 27.4403C23.5237 27.9117 23.8138 28.3402 24.1803 28.7013C24.5467 29.0624 24.9821 29.349 25.4617 29.5447C25.9412 29.7403 26.4554 29.8412 26.9748 29.8415Z" fill="white" fill-opacity="0.5"/>
</svg>
