<svg width="48" height="48" viewBox="0 0 48 48" fill="none" xmlns="http://www.w3.org/2000/svg">
<path d="M17.334 17.334C15.5658 17.334 13.87 16.6316 12.6197 15.3813C11.3694 14.131 10.667 12.4352 10.667 10.667C10.667 8.8988 11.3694 7.20302 12.6197 5.95272C13.87 4.70241 15.5658 4 17.334 4H24V17.334M17.334 17.334H24M17.334 17.334C15.5661 17.334 13.8705 18.0363 12.6204 19.2864C11.3703 20.5365 10.668 22.2321 10.668 24C10.668 25.7679 11.3703 27.4635 12.6204 28.7136C13.8705 29.9637 15.5661 30.666 17.334 30.666H24V17.334" stroke="#919191" stroke-width="3"/>
<path d="M37.334 24C37.334 25.7682 36.6316 27.464 35.3813 28.7143C34.1309 29.9646 32.4352 30.667 30.667 30.667C28.8988 30.667 27.203 29.9646 25.9527 28.7143C24.7024 27.464 24 25.7682 24 24C24 22.2318 24.7024 20.536 25.9527 19.2857C27.203 18.0354 28.8988 17.333 30.667 17.333C32.4352 17.333 34.1309 18.0354 35.3813 19.2857C36.6316 20.536 37.334 22.2318 37.334 24ZM17.334 30.668H24V37.334C23.9996 38.6523 23.6083 39.9409 22.8756 41.0369C22.1429 42.1328 21.1016 42.9869 19.8836 43.4912C18.6655 43.9954 17.3252 44.1271 16.0323 43.8697C14.7393 43.6122 13.5517 42.9772 12.6197 42.0449C11.6876 41.1125 11.053 39.9248 10.7959 38.6317C10.5389 37.3387 10.671 35.9985 11.1756 34.7806C11.6802 33.5626 12.5346 32.5217 13.6307 31.7893C14.7269 31.0569 16.0156 30.668 17.334 30.668Z" stroke="#919191" stroke-width="3"/>
<path d="M24 4H30.666C32.4342 4 34.13 4.70241 35.3803 5.95272C36.6306 7.20302 37.333 8.8988 37.333 10.667C37.333 12.4352 36.6306 14.131 35.3803 15.3813C34.13 16.6316 32.4342 17.334 30.666 17.334H24V4Z" stroke="#919191" stroke-width="3"/>
</svg>
