<svg width="48" height="48" viewBox="0 0 48 48" fill="none" xmlns="http://www.w3.org/2000/svg">
<path d="M37.7281 12.1303C39.177 12.4297 40.4782 13.2198 41.4123 14.3672C42.3464 15.5145 42.8561 16.949 42.8555 18.4285V32.1428C42.8555 34.9844 41.7267 37.7096 39.7173 39.719C37.708 41.7283 34.9828 42.8571 32.1412 42.8571H18.4269C16.9449 42.8574 15.5084 42.3457 14.3603 41.4085C13.2123 40.4713 12.4233 39.1663 12.1269 37.7143H14.7943C15.06 38.4656 15.5519 39.1163 16.2023 39.5767C16.8528 40.0372 17.63 40.2849 18.4269 40.2857H32.1412C33.2105 40.2857 34.2694 40.0751 35.2573 39.6658C36.2453 39.2566 37.1429 38.6568 37.8991 37.9007C38.6552 37.1446 39.255 36.2469 39.6642 35.259C40.0734 34.271 40.2841 33.2122 40.2841 32.1428V18.4285C40.2841 16.7554 39.2178 15.3343 37.7281 14.8011V12.1303ZM29.5715 5.14282C31.2764 5.14282 32.9116 5.82012 34.1172 7.02571C35.3228 8.2313 36.0001 9.86643 36.0001 11.5714V29.5714C36.0001 31.2764 35.3228 32.9115 34.1172 34.1171C32.9116 35.3227 31.2764 36 29.5715 36H11.5715C9.86652 36 8.23139 35.3227 7.0258 34.1171C5.8202 32.9115 5.14291 31.2764 5.14291 29.5714V19.9457C5.97985 20.2089 6.8774 20.2089 7.71434 19.9457V29.5714C7.71434 30.5944 8.12072 31.5755 8.84407 32.2988C9.56743 33.0222 10.5485 33.4285 11.5715 33.4285H29.5715C30.5945 33.4285 31.5755 33.0222 32.2989 32.2988C33.0222 31.5755 33.4286 30.5944 33.4286 29.5714V11.5714C33.4286 10.5484 33.0222 9.56734 32.2989 8.84398C31.5755 8.12063 30.5945 7.71425 29.5715 7.71425H11.5715C10.5485 7.71425 9.56743 8.12063 8.84407 8.84398C8.12072 9.56734 7.71434 10.5484 7.71434 11.5714V11.7668C6.8774 11.5036 5.97985 11.5036 5.14291 11.7668V11.5714C5.14291 9.86643 5.8202 8.2313 7.0258 7.02571C8.23139 5.82012 9.86652 5.14282 11.5715 5.14282H29.5715ZM6.42862 13.2857C7.38005 13.2857 8.20805 13.8034 8.65377 14.5714H9.8572C11.3875 14.5714 12.8967 14.9277 14.2654 15.612C15.6342 16.2964 16.8247 17.29 17.7429 18.5143C18.4216 19.4191 19.3015 20.1535 20.3132 20.6594C21.3249 21.1652 22.4404 21.4285 23.5715 21.4285H26.4686L22.6629 17.6228C22.5366 17.5051 22.4353 17.3632 22.365 17.2055C22.2947 17.0477 22.2569 16.8775 22.2539 16.7049C22.2508 16.5322 22.2826 16.3607 22.3473 16.2007C22.4119 16.0406 22.5082 15.8951 22.6303 15.773C22.7524 15.651 22.8978 15.5547 23.0579 15.49C23.218 15.4254 23.3895 15.3936 23.5621 15.3967C23.7347 15.3997 23.905 15.4375 24.0627 15.5078C24.2204 15.578 24.3623 15.6794 24.4801 15.8057L30.4801 21.8057C30.7208 22.0468 30.8561 22.3735 30.8561 22.7143C30.8561 23.055 30.7208 23.3818 30.4801 23.6228L24.4801 29.6228C24.3623 29.7491 24.2204 29.8505 24.0627 29.9207C23.905 29.991 23.7347 30.0288 23.5621 30.0318C23.3895 30.0349 23.218 30.0031 23.0579 29.9385C22.8978 29.8738 22.7524 29.7775 22.6303 29.6555C22.5082 29.5334 22.4119 29.3879 22.3473 29.2278C22.2826 29.0678 22.2508 28.8963 22.2539 28.7236C22.2569 28.551 22.2947 28.3808 22.365 28.223C22.4353 28.0653 22.5366 27.9234 22.6629 27.8057L26.4686 24H23.5715C22.0412 24 20.532 23.6437 19.1632 22.9593C17.7945 22.275 16.6039 21.2813 15.6858 20.0571C15.0071 19.1523 14.1271 18.4178 13.1155 17.912C12.1038 17.4062 10.9883 17.1428 9.8572 17.1428H8.65377C8.37208 17.6348 7.93549 18.0198 7.41209 18.2377C6.8887 18.4556 6.30791 18.4941 5.7603 18.3473C5.21269 18.2005 4.72905 17.8767 4.3848 17.4262C4.04055 16.9758 3.85504 16.424 3.8572 15.8571C3.8572 15.1751 4.12811 14.5211 4.61035 14.0388C5.09259 13.5566 5.74664 13.2857 6.42862 13.2857Z" fill="#919191"/>
</svg>
