<svg width="48" height="48" viewBox="0 0 48 48" fill="none" xmlns="http://www.w3.org/2000/svg">
<path d="M23.9999 35.9999C23.7517 35.9997 23.5074 35.9378 23.2889 35.8199L3.78894 25.3199L5.21094 22.6799L23.9999 32.7959L42.7889 22.6799L44.2109 25.3199L24.7109 35.8199C24.4925 35.9378 24.2482 35.9997 23.9999 35.9999Z" fill="#919191"/>
<path d="M24 44.9999C23.7518 44.9997 23.5075 44.9379 23.289 44.8199L3.789 34.3199L5.211 31.6799L24 41.7959L42.789 31.6799L44.211 34.3199L24.711 44.8199C24.4926 44.9379 24.2482 44.9997 24 44.9999ZM24 26.9999C23.7518 26.9997 23.5075 26.9379 23.289 26.8199L3.789 16.3199C3.55088 16.1914 3.35195 16.0009 3.21331 15.7685C3.07466 15.5361 3.00146 15.2705 3.00146 14.9999C3.00146 14.7293 3.07466 14.4638 3.21331 14.2314C3.35195 13.999 3.55088 13.8085 3.789 13.6799L23.289 3.17995C23.5075 3.06231 23.7518 3.00073 24 3.00073C24.2482 3.00073 24.4925 3.06231 24.711 3.17995L44.211 13.6799C44.4491 13.8085 44.6481 13.999 44.7867 14.2314C44.9253 14.4638 44.9985 14.7293 44.9985 14.9999C44.9985 15.2705 44.9253 15.5361 44.7867 15.7685C44.6481 16.0009 44.4491 16.1914 44.211 16.3199L24.711 26.8199C24.4926 26.9379 24.2482 26.9997 24 26.9999ZM7.665 14.9999L24 23.7959L40.335 14.9999L24 6.20395L7.665 14.9999Z" fill="#919191"/>
</svg>
