<svg width="50" height="50" viewBox="0 0 50 50" fill="none" xmlns="http://www.w3.org/2000/svg">
<path fill-rule="evenodd" clip-rule="evenodd" d="M18.7501 25H14.0251C13.5665 25.7943 12.8586 26.4152 12.0112 26.7662C11.1638 27.1172 10.2242 27.1788 9.33825 26.9414C8.45228 26.704 7.6694 26.1809 7.11103 25.4532C6.55266 24.7255 6.25 23.8339 6.25 22.9167C6.25 21.9994 6.55266 21.1078 7.11103 20.3802C7.6694 19.6525 8.45228 19.1294 9.33825 18.892C10.2242 18.6546 11.1638 18.7162 12.0112 19.0672C12.8586 19.4182 13.5665 20.039 14.0251 20.8333H18.7501V10.4167C18.7501 9.3116 19.1891 8.25179 19.9705 7.47039C20.7519 6.68899 21.8117 6.25 22.9168 6.25H39.5834C40.6885 6.25 41.7483 6.68899 42.5297 7.47039C43.3111 8.25179 43.7501 9.3116 43.7501 10.4167V39.5833C43.7501 40.6884 43.3111 41.7482 42.5297 42.5296C41.7483 43.311 40.6885 43.75 39.5834 43.75H22.9168C21.8117 43.75 20.7519 43.311 19.9705 42.5296C19.1891 41.7482 18.7501 40.6884 18.7501 39.5833V25ZM22.9168 25V39.5833H39.5834V10.4167H22.9168V20.8333H27.6418C28.1004 20.039 28.8083 19.4182 29.6557 19.0672C30.5031 18.7162 31.4426 18.6546 32.3286 18.892C33.2146 19.1294 33.9975 19.6525 34.5558 20.3802C35.1142 21.1078 35.4169 21.9994 35.4169 22.9167C35.4169 23.8339 35.1142 24.7255 34.5558 25.4532C33.9975 26.1809 33.2146 26.704 32.3286 26.9414C31.4426 27.1788 30.5031 27.1172 29.6557 26.7662C28.8083 26.4152 28.1004 25.7943 27.6418 25H22.9168Z" fill="#919191"/>
</svg>
