<svg width="48" height="48" viewBox="0 0 48 48" fill="none" xmlns="http://www.w3.org/2000/svg">
<path d="M39 6H29C27.34 6 26 7.34 26 9V19C26 20.66 27.34 22 29 22H39C40.66 22 42 20.66 42 19V9C42 7.34 40.66 6 39 6ZM38 18H30V10H38V18ZM19 6H9C7.34 6 6 7.34 6 9V39C6 40.66 7.34 42 9 42H19C20.66 42 22 40.66 22 39V9C22 7.34 20.66 6 19 6ZM18 38H10V10H18V38ZM39 26H29C27.34 26 26 27.34 26 29V39C26 40.66 27.34 42 29 42H39C40.66 42 42 40.66 42 39V29C42 27.34 40.66 26 39 26ZM38 38H30V30H38V38Z" fill="#919191"/>
</svg>
